<svg xmlns="http://www.w3.org/2000/svg" viewBox="0 0 48 48">
  <path d="M44.5 20H24v8.5h11.8C34.5 33.9 29.9 38 24 38c-7.2 0-13-5.8-13-13s5.8-13 13-13c3.3 0 6.2 1.2 8.5 3.2l6-6C34.9 5.1 29.8 3 24 3 12.4 3 3 12.4 3 24s9.4 21 21 21c10.5 0 20.3-7.6 20.3-21 0-1.4-.1-2.7-.3-4z" fill="#4285F4" />
  <path d="M6.3 14.7l7 5.1C15.2 16 19.3 13 24 13c3.3 0 6.2 1.2 8.5 3.2l6-6C34.9 5.1 29.8 3 24 3c-7.9 0-14.7 4.3-18.7 10.7z" fill="#34A853" />
  <path d="M24 45c5.7 0 10.8-1.9 14.4-5.1l-6.6-5.4C29.9 36.9 27.1 38 24 38c-5.8 0-10.8-3.9-12.5-9.2l-7 5.4C8.5 40.5 15.8 45 24 45z" fill="#FBBC05" />
  <path d="M11.5 28.8c-.4-1.2-.6-2.4-.6-3.8s.2-2.6.6-3.8l-7-5.1C3.5 18.5 3 21.2 3 24s.5 5.5 1.5 7.9l7-5.1z" fill="#EA4335" />
</svg>
