<svg xmlns="http://www.w3.org/2000/svg" viewBox="0 0 24 24" fill="#0f172a">
  <path d="M12 2C6.5 2 2 6.6 2 12.3c0 4.5 2.9 8.3 6.9 9.6.5.1.7-.2.7-.5v-1.9c-2.8.6-3.4-1.2-3.4-1.2-.4-1.1-1.1-1.4-1.1-1.4-.9-.7.1-.7.1-.7 1 0 1.6 1.1 1.6 1.1.9 1.6 2.5 1.1 3.1.8.1-.7.4-1.1.6-1.4-2.2-.2-4.5-1.1-4.5-5 0-1.1.4-2 1.1-2.8-.1-.2-.5-1.3.1-2.7 0 0 .9-.3 2.9 1.1.9-.3 1.8-.4 2.7-.4.9 0 1.8.1 2.7.4 2-1.4 2.9-1.1 2.9-1.1.6 1.4.2 2.5.1 2.7.7.8 1.1 1.7 1.1 2.8 0 3.9-2.3 4.8-4.5 5 .4.3.7 1 .7 2.1v3.2c0 .3.2.6.7.5 4-1.3 6.9-5.1 6.9-9.6C22 6.6 17.5 2 12 2z" />
</svg>
